<svg xmlns="http://www.w3.org/2000/svg" xmlns:xlink="http://www.w3.org/1999/xlink" width="63.995" height="50.505" viewBox="0 0 63.995 50.505">
  <defs>
    <clipPath id="clip-path">
      <rect id="Rectangle_9" data-name="Rectangle 9" width="63.995" height="50.505"/>
    </clipPath>
  </defs>
  <g id="Group_129" data-name="Group 129" opacity="0.19">
    <g id="Group_11" data-name="Group 11" clip-path="url(#clip-path)">
      <path id="Path_9" data-name="Path 9" d="M148.723,25.123q.23-.936.413-1.886c5.808-29.612-30.38-29.681-29.847-6.866h0A15.291,15.291,0,0,0,130.6,29.976a13.052,13.052,0,0,1-8.32,14.191l2.261,6.379A35.409,35.409,0,0,0,147.146,30h0a35.422,35.422,0,0,0,1.581-4.876" transform="translate(-85.772 -0.041)"/>
      <path id="Path_10" data-name="Path 10" d="M30.475,17.115c0-.345-.007-.69-.022-1.035h0c-.005-.108-.01-.217-.015-.325h0C30.038-3.693,3.575-5.827.132,13.227h0c-.017.129-.032.258-.046.386h0A15.605,15.605,0,0,0,0,15.484H0a15.292,15.292,0,0,0,11.35,14.451,13.021,13.021,0,0,1-8.32,14.191L5.294,50.5a35.533,35.533,0,0,0,16.2-10.282h0c.759-.855,1.486-1.74,2.159-2.665h0q.12-.164.238-.328h0a35.6,35.6,0,0,0,6.511-18.044h0c.045-.689.072-1.379.067-2.07" transform="translate(0 0)"/>
    </g>
  </g>
</svg>
