<svg xmlns="http://www.w3.org/2000/svg" xmlns:xlink="http://www.w3.org/1999/xlink" width="239" height="37.316" viewBox="0 0 239 37.316"><defs><style>.a,.c{fill:#e5004b;}.b{clip-path:url(#a);}.c{fill-rule:evenodd;}</style><clipPath id="a"><rect class="a" width="239" height="37.316"/></clipPath></defs><g class="b" transform="translate(0 0)"><path class="c" d="M70.819.038h-16.1s-7.666-.566-10.9,2.673c-3.8,3.856-4.372,8.381-4.63,11.569-.669,8.282.874,15.119,2.83,18.1a10.334,10.334,0,0,0,8.844,4.831c1.232.053,2.056.053,3.96.053H74.988V29.658H61.667c-3.756,0-6.069.1-7.3-.413a5.624,5.624,0,0,1-3.393-4.68,65.687,65.687,0,0,1,0-11.931c.3-2.569.926-3.651,2.313-4.469,1.748-1.029,5.5-.823,6.941-.823s14.763.05,14.763.05ZM107.542,25.8S95.25,8.419,93.912,6.415A15.53,15.53,0,0,0,89.8,1.993C87.125.038,82.753.038,82.753.038h-3.86L79,37.268h7.818V13.87S97.1,28.784,99.056,31.66a13.266,13.266,0,0,0,5.45,4.628c2.885,1.344,10.7.981,10.7.981V.19h-7.663ZM24.478,14.486H15.485c-1.911.052-3.506-1.232-3.506-3.8a3.361,3.361,0,0,1,3.506-3.291H35.848L31.783.038H16.1C12.552.038,7.2-.481,3.29,3.327-.823,7.341-.259,12.9,1.492,16.443a9.419,9.419,0,0,0,6.376,4.933,30.477,30.477,0,0,0,6.226.616c2.005,0,4.113,0,5.5.055,1.388.105,3.6.2,4.322,2.518.768,2.522-.053,3.8-1.337,4.628-.875.567-3.344.41-4.682.465H0v7.611H22.272s7.762.668,11.672-4.73a11.689,11.689,0,0,0,1.234-10.8,11.322,11.322,0,0,0-10.7-7.253m32.2,7.616H72.215v-8.59H51.741Zm171.683-.979s4.215-.465,6.321-3.3A10.855,10.855,0,0,0,236.485,7.7c-1.131-3.6-3.088-4.938-5.144-6.327S225.272.09,225.272.09H202.488V37.314h10.334V7.9h5.914c4.116.055,5.1.314,6.226,1.546a4.379,4.379,0,0,1,.41,5.139,4.944,4.944,0,0,1-3.19,2.114h-7.969s5.038,5.756,9.1,11.362c2.881,4.012,5.813,9.251,5.813,9.251H239s-3.288-6.013-5.294-8.945c-1.9-2.774-5.346-7.246-5.346-7.246M193.846,2.711C190.708-.528,183.2.038,183.2.038l-4.979.055L173.274.038s-7.507-.566-10.647,2.673c-3.7,3.856-4.267,8.381-4.477,11.569-.665,8.282.773,15.119,2.728,18.1a10.034,10.034,0,0,0,8.59,4.831c1.18.053,2.054.053,3.853.053,1.73,0,3.42-.006,4.9-.011s3.168.011,4.876.011c1.848,0,2.672,0,3.907-.053a10.03,10.03,0,0,0,8.59-4.831c1.9-2.984,3.4-9.822,2.727-18.1-.261-3.189-.768-7.713-4.474-11.569m-7,21.853c-.308,2.265-1.18,3.911-3.085,4.68a9.878,9.878,0,0,1-3.379.413h-.376c-.636,0-1.227,0-1.79,0s-1.163,0-1.809,0h-.333a9.9,9.9,0,0,1-3.374-.413c-1.9-.768-2.772-2.415-3.134-4.68a71.077,71.077,0,0,1,0-11.931c.361-2.569.924-3.651,2.313-4.469a8.669,8.669,0,0,1,4.194-.844c.534.009,1.161.02,1.771.02.116,0,.248,0,.387-.008s.272.008.385.008c.589,0,1.218-.011,1.754-.02a8.86,8.86,0,0,1,4.213.844c1.389.819,1.953,1.9,2.261,4.469a61.557,61.557,0,0,1,0,11.931m-53.54-16.4c1.751-1.029,5.45-.823,6.944-.823,1.441,0,14.761.05,14.761.05L150.8.038H134.751S127.035-.528,123.8,2.711c-3.756,3.856-4.27,8.381-4.528,11.569-.669,8.282.823,15.119,2.778,18.1a10.317,10.317,0,0,0,8.794,4.831c1.237.053,2.107.053,4.012.053h20.107V29.658H141.7c-3.759,0-6.324.1-7.51-.413-1.955-.768-2.881-2.415-3.185-4.68a60.939,60.939,0,0,1,0-11.931c.3-2.569.921-3.651,2.31-4.469" transform="translate(-0.001 0)"/></g></svg>