<svg xmlns="http://www.w3.org/2000/svg" width="11" height="12" viewBox="0 0 11 12"><defs><style>.a{fill:none;stroke-linecap:round;stroke-linejoin:round;}.b,.c{stroke:none;}.c{fill:#e5004b;}</style></defs><g class="a" transform="translate(3 9) rotate(-90)"><path class="b" d="M3,0,6,5H0Z"/><path class="c" d="M 3 0 L 0 5 L 6 5 L 3 0 M 3 -3 C 4.053790092468262 -3 5.030310153961182 -2.447100162506104 5.572480201721191 -1.543489933013916 L 8.572480201721191 3.456510066986084 C 9.128549575805664 4.383299827575684 9.143119812011719 5.537569999694824 8.610599517822266 6.478099822998047 C 8.078080177307129 7.418620109558105 7.080820083618164 8 6 8 L 0 8 C -1.080820083618164 8 -2.078080177307129 7.418620109558105 -2.610600471496582 6.478099822998047 C -3.143119812011719 5.537569999694824 -3.128549575805664 4.383299827575684 -2.572480201721191 3.456510066986084 L 0.4275197982788086 -1.543489933013916 C 0.9696898460388184 -2.447100162506104 1.946209907531738 -3 3 -3 Z"/></g></svg>