<svg xmlns="http://www.w3.org/2000/svg" xmlns:xlink="http://www.w3.org/1999/xlink" width="134" height="134" viewBox="0 0 134 134">
  <defs>
    <linearGradient id="linear-gradient" x1="0.051" y1="0.193" x2="0.888" y2="0.836" gradientUnits="objectBoundingBox">
      <stop offset="0" stop-color="#ffd4d4"/>
      <stop offset="0.167" stop-color="#fff9de"/>
      <stop offset="0.326" stop-color="#e3ffd8"/>
      <stop offset="0.494" stop-color="#ccfffc"/>
      <stop offset="0.674" stop-color="#c8c8ff"/>
      <stop offset="0.824" stop-color="#ffd8ff"/>
      <stop offset="1" stop-color="#ffd2d2"/>
    </linearGradient>
    <filter id="Union_71" x="0" y="0" width="134" height="134" filterUnits="userSpaceOnUse">
      <feOffset dx="5" dy="6" input="SourceAlpha"/>
      <feGaussianBlur stdDeviation="3" result="blur"/>
      <feFlood/>
      <feComposite operator="in" in2="blur"/>
      <feComposite in="SourceGraphic"/>
    </filter>
  </defs>
  <g transform="matrix(1, 0, 0, 1, 0, 0)" filter="url(#Union_71)">
    <path id="Union_71-2" data-name="Union 71" d="M0,57.5A57.5,57.5,0,1,1,57.5,115,57.515,57.515,0,0,1,0,57.5ZM21.084,21.084A51.477,51.477,0,1,0,57.5,5.99,51.438,51.438,0,0,0,21.084,21.084Zm33.709,83.447L52.9,101.32l-.084.084-.251,2.923-2.144-.192.743-8.445,2.143.191-.275,3.127L55.6,96.085l2.659.239-3.7,3.786,2.947,4.66Zm5.667-8.517,1.941-.2,3.912,8.1-2.271.249-.731-1.629-2.252.239-.347,1.749-2.288.24Zm.874,4.8,1.258-.132H62.6l-.851-2.407h-.06Zm4.978,3.093.017,0-.012.012Zm-20.731-.793c-1.605-.443-2.959-1.833-2.444-3.689l.778-2.815c.515-1.845,2.384-2.348,4.026-1.892A3.131,3.131,0,0,1,50.288,97.4l-1.868.216c-.275-1.173-2.156-1.437-2.444-.431L45.2,100c-.275.982,1.5,1.772,2.264.767l1.57,1.329a3.42,3.42,0,0,1-2.542,1.141A3.383,3.383,0,0,1,45.581,103.116Zm21.662-8.17,3.182-1.137a3,3,0,1,1,2.037,5.642l-1.186.419.839,2.336-2.025.719Zm3.853.744-1.173.418.706,1.977,1.174-.419c1.1-.378.636-2.04-.361-2.04A1.009,1.009,0,0,0,71.1,95.69Zm-32.427,4.839,3.294-7.81,1.977.839-3.295,7.81Zm-3.906-1.976.1-3.846.252-1.845-.06-.024-.611,1.545-1.761,2.9-1.833-1.114,4.388-7.245,1.745,1.052-.12,4.156L36.6,95.965l.06.024s.563-1.365.551-1.377L39.2,91.317l1.82,1.1-4.4,7.26Zm41.688-.994-1.474-2.492c-.994-1.678.025-3.391,1.534-4.289s3.521-.958,4.516.707L82.5,93.977c.994,1.665-.024,3.4-1.533,4.288a4.249,4.249,0,0,1-2.133.624A2.66,2.66,0,0,1,76.451,97.558Zm3.5-.994c.587-.348,1.018-.97.706-1.486l-1.474-2.492c-.335-.563-1.1-.468-1.688-.108s-.982.97-.671,1.509L78.3,96.48v-.012C78.607,97.007,79.362,96.912,79.949,96.564Zm-18.8-3.2,2.217-.239-1.354,2.144-1.845.2ZM80.1,88.682l2.372-2.109v-.012c1.27-1.127,3.031-1.545,4.348-.072l1.893,2.133c1.306,1.462.682,3.15-.6,4.277l-2.372,2.108ZM83.866,88l-.815.731,2.971,3.33.814-.731v.012c.552-.491.552-.982.18-1.4l-1.761-1.976a.859.859,0,0,0-.637-.315A1.146,1.146,0,0,0,83.866,88ZM67.239,94.935l0,.011h0Zm-42.79-4.3.239-.851,6.553-1.749-2.516-2.289,1.342-1.473,4.564,4.144H34.62l-.143.839L27.863,91.1l2.564,2.3L29.1,94.863Zm-2.516-2.948,1.031-1.461L21.6,84.417l-1.676.6-1.378-1.833L27.1,80.452l1.174,1.558-4.959,7.522Zm1.474-4.036.767,1.018L25.8,82.7l-.036-.047Zm61.968.216,2.06-2.683A3,3,0,1,1,92.2,84.825l-.767.994L93.4,87.328l-1.306,1.7Zm3.642-1.474-.755.982,1.665,1.282.755-.994v.012c.6-.754-.178-1.659-.935-1.659A.893.893,0,0,0,89.018,82.392ZM35.231,88.922l.012-.012-.008.014ZM16.842,79.913l1.774-3.282-.12-.024L15.86,77.888l-.947-1.941,7.619-3.725.947,1.941-2.815,1.378,3.833.694v.024l1.174,2.4L20.52,77.433l-2.48,4.924Zm77.7,1.15-2.6-1.294c-1.749-.862-1.833-2.863-1.043-4.432s2.432-2.719,4.169-1.857l2.6,1.294c1.737.862,1.833,2.862,1.043,4.432a3.518,3.518,0,0,1-2.956,2.153A2.706,2.706,0,0,1,94.54,81.063Zm-1.917-4.852c-.3.6-.3,1.353.264,1.629l2.6,1.294c.551.276,1.137-.216,1.437-.827s.323-1.365-.216-1.629l-2.6-1.294a.78.78,0,0,0-.358-.089A1.45,1.45,0,0,0,92.623,76.212ZM14.231,74.4l.01-.007,0,.007Zm-.587-2.216,1.5-.97-.587-2.193-1.785-.071-.6-2.217,8.96.659.5,1.881L14.241,74.4Zm2.874-3.2.323,1.222.012.012,2.24-1.21v-.059ZM92.791,71.54l.91-3.271c.467-1.688,1.605-2.779,3.534-2.288,1.509.419,2.192,1.27,2.228,2.348l3.425-1.45-.718,2.576-3.127,1.174h-.012l-.1.372,2.6.718L100.96,73.8Zm2.827-2.768-.335,1.21,1.868.515.335-1.21a.963.963,0,0,0-.938-1.274A.95.95,0,0,0,95.618,68.772ZM66.125,73.552l-3.354-4.791h-.6v4.672H58.458V58.938h5.751c2.994,0,5.27,1.317,5.391,4.791,0,2.636-1.078,4.193-2.875,4.792l3.953,5.031Zm-3.952-7.906h2.156a1.677,1.677,0,1,0,0-3.354H62.172Zm-29.469,3V63.609c0-3.234,2.875-4.912,5.751-4.912a5.389,5.389,0,0,1,5.15,3.355l-2.994,1.2c-.958-1.8-4.193-1.438-4.193.359v5.032c0,1.8,3.234,2.276,4.073.239l3.234,1.437a5.7,5.7,0,0,1-5.271,3.234C35.578,73.552,32.7,71.875,32.7,68.641Zm39.053,4.791V58.938H81.818v3.354H75.469v2.276h5.99V67.8h-5.99v2.156h6.349v3.474Zm-18.328,0-.958-2.875H48.635l-.958,2.875H43.724l5.031-14.494h3.354L57.38,73.432ZM49.474,67.2H51.63l-.958-4.193h-.12ZM22.113,68.82v-.012l-.479-1.8,2.227.647.576,2.156Zm72.642-6.4.143-1.941,8.685-2.4-.168,2.3-1.737.419-.167,2.252,1.653.647L103,66Zm2.468-.851v.06l2.419.8.1-1.258ZM11.548,59.058,12.3,58.6l5.953,3.234L18,58.446l1.976-.143.456,6.145h.012l-.684.5L13.7,61.741l.276,3.438-1.965.143ZM69.6,48.516V43.6c0-3.354,2.994-5.031,5.989-5.031s5.99,1.676,5.99,5.031v4.912c0,3.354-3,5.032-5.99,5.032S69.6,51.87,69.6,48.516Zm5.989,1.678c1.2,0,2.4-.48,2.4-1.558V43.724c0-1.078-1.2-1.678-2.4-1.678s-2.276.6-2.276,1.678v4.911h-.12C73.193,49.713,74.391,50.193,75.588,50.193ZM57.5,48.635V43.6c0-3.234,2.875-4.911,5.751-4.911a5.39,5.39,0,0,1,5.15,3.354l-2.994,1.2c-.958-1.8-4.193-1.437-4.193.359v5.032c0,1.8,3.234,2.276,4.073.239l3.234,1.438a5.7,5.7,0,0,1-5.271,3.234C60.375,53.547,57.5,51.87,57.5,48.635Zm33.9,4.792-3.354-4.673h-.6v4.673H83.735V38.812h5.75c3,0,5.271,1.317,5.391,4.791C94.875,46.24,93.8,47.8,92,48.4l3.953,5.032ZM87.328,45.64h2.156a1.677,1.677,0,1,0,0-3.354H87.328ZM31.865,53.428V38.812H41.927v3.474H35.578v2.276h5.75V47.8H35.458v2.156h6.469v3.475Zm3.713-8.865h0ZM51.75,53.307l-3.234-5.75L47.2,44.682h-.12l.479,2.756v5.75H43.844V38.812h3.593l3.474,6.229,1.2,2.874h.12L51.87,45.4V38.812h3.593V53.307ZM19.406,50.672l2.276-1.917c1.437,1.8,4.672,1.8,4.792.239,0-.838-1.319-1.317-2.516-1.437-2.4-.359-4.432-1.8-4.432-4.672s2.636-4.312,5.271-4.312a5.8,5.8,0,0,1,4.912,2.276l-2.4,1.8c-1.557-1.678-4.072-1.558-4.193.12,0,.718.839,1.078,1.917,1.317,2.636.479,5.151,1.317,5.032,4.911-.12,2.756-3.115,4.312-5.75,4.312A6.043,6.043,0,0,1,19.406,50.672Zm51.63-23.24-3-.957,2.636-1.8-.121-3.234,2.636,1.917,3-.958-1.078,3,1.916,2.635-3.114-.12-1.917,2.635Zm-30.187,0-3-.957,2.636-1.8V21.443l2.515,1.917,3-.958-.958,3,1.917,2.635-3.234-.12-1.917,2.635Zm15.094-8.864-3-.958,2.636-1.8-.121-3.234L58.1,14.494l3-1.078-1.078,3.115,1.916,2.516H58.818L56.9,21.682Z" transform="translate(4.5 3.5)" stroke="rgba(0,0,0,0)" stroke-width="1" fill="url(#linear-gradient)"/>
  </g>
</svg>
