<svg xmlns="http://www.w3.org/2000/svg" xmlns:xlink="http://www.w3.org/1999/xlink" width="143.872" height="131.404" viewBox="0 0 143.872 131.404">
  <defs>
    <linearGradient id="linear-gradient" x1="0.213" y1="0.144" x2="0.928" y2="0.919" gradientUnits="objectBoundingBox">
      <stop offset="0" stop-color="#ffd4d4"/>
      <stop offset="0.167" stop-color="#fff9de"/>
      <stop offset="0.326" stop-color="#e3ffd8"/>
      <stop offset="0.494" stop-color="#ccfffc"/>
      <stop offset="0.674" stop-color="#c8c8ff"/>
      <stop offset="0.824" stop-color="#ffd8ff"/>
      <stop offset="1" stop-color="#ffd2d2"/>
    </linearGradient>
    <filter id="Union_60" x="0" y="0" width="143.872" height="131.404" filterUnits="userSpaceOnUse">
      <feOffset dx="5" dy="6" input="SourceAlpha"/>
      <feGaussianBlur stdDeviation="3" result="blur"/>
      <feFlood/>
      <feComposite operator="in" in2="blur"/>
      <feComposite in="SourceGraphic"/>
    </filter>
  </defs>
  <g transform="matrix(1, 0, 0, 1, 0, 0)" filter="url(#Union_60)">
    <path id="Union_60-2" data-name="Union 60" d="M38.409,104.151H96.672a55.544,55.544,0,0,1-58.263,0Zm-22.186-2.1a5.913,5.913,0,0,1-5.89-5.923V80.911a5.913,5.913,0,0,1,5.89-5.923H118.753a5.912,5.912,0,0,1,5.89,5.923V96.126a5.912,5.912,0,0,1-5.89,5.923Zm-2.3-21.138V96.126a2.306,2.306,0,0,0,2.3,2.31H118.753a2.306,2.306,0,0,0,2.3-2.31V80.911a2.306,2.306,0,0,0-2.3-2.31H16.224A2.306,2.306,0,0,0,13.928,80.911Zm31.438,9.312v-3.14c0-2.058,1.793-3.115,3.61-3.115a3.361,3.361,0,0,1,3.187,2.1l-1.868.762c-.614-1.132-2.636-.875-2.636.254v3.14c0,1.094,2.046,1.4,2.546.141l2,.928a3.642,3.642,0,0,1-3.263,2.048C47.159,93.338,45.365,92.295,45.365,90.222ZM33.836,93.211l-2.1-2.9h-.409v2.9H29.011V84.1H32.63c1.867,0,3.313.863,3.365,3,0,1.688-.679,2.639-1.779,2.985l2.417,3.065,3.141-9.051H41.86L45.1,93.208H42.641l-.589-1.828H39.633l-.563,1.828H36.684l0,0Zm6.308-3.877H41.5l-.629-2.664h-.064Zm-8.82-1H32.67a1.043,1.043,0,0,0,.083-2.084.759.759,0,0,0-.083,0H31.324Zm76.584,4.879-.42-.85,3.916-6.126h-3.636V84.1h6.592l.486.772-3.9,6.243,3.687-.026v2.123Zm-7.538,0V84.1h6.311v2.163h-3.994v1.412h3.673V89.67h-3.673v1.364h3.994v2.175Zm-3.878,0-2.047-3.591-.794-1.828-.064.013.295,1.764V93.2H91.591V84.1h2.175l2.188,3.887.769,1.828.063-.013c-.011,0-.243-1.571-.252-1.571V84.1h2.278v9.112Zm-20.591,0V84.1h3.619a3.226,3.226,0,0,1,.192,6.448c-.059,0-.119,0-.179,0H78.186v2.664ZM78.192,88.5h1.328a1.13,1.13,0,0,0,0-2.253H78.192Zm-8.6,4.712V84.1h2.293v9.112Zm-3.874,0L63.67,89.618l-.793-1.828-.064.013.295,1.764V93.2H60.813V84.1h2.175l2.188,3.887.769,1.828.063-.013c-.011,0-.243-1.571-.251-1.571V84.1h2.277v9.112Zm18.22,0V84.1h6.311V86.26H86.254v1.415h3.673v1.994H86.254v1.364h3.994v2.175Zm-30.777,0V84.1H59.47V86.26H55.476v1.415h3.673v1.994H55.476v1.364H59.47v2.175ZM22.92,93.2l-3.261-9.111h2.458l1.421,4.454.41,2.161h.039l.41-2.15,1.429-4.466h2.457L25.019,93.2Zm79.933-9.717-1.92-2.162h2.154l.525.668.589-.668h2.136l-1.919,2.162Zm-33.427,0,1.284-2.136H73.09l-1.68,2.136Zm-29.907,0L40.8,81.342h2.38L41.5,83.478ZM11.487,72.6.925,61.545a3.352,3.352,0,0,1,.092-4.718l1.83-1.771,0,0a3.307,3.307,0,0,1,4.693.1l1.968,2.058c-.008-.367-.02-.734-.02-1.1A55.954,55.954,0,0,1,65.284,0c.4,0,.791.022,1.192.03l.068,0v0A55.513,55.513,0,0,1,80.7,2.2a56.128,56.128,0,0,1,38.223,69.379l-.034-.01a1.755,1.755,0,1,1-3.356-1.019h0a50.243,50.243,0,0,0-46.134-64.5c-.966-.078-1.936-.139-2.916-.162A50.1,50.1,0,0,0,17.627,56.1c0,.39.015.776.023,1.162l2.071-2.314,0,0a3.305,3.305,0,0,1,4.686-.244l1.888,1.71a3.35,3.35,0,0,1,.244,4.711l-10.2,11.392c-.054.061-.11.12-.168.175a3.3,3.3,0,0,1-4.691-.1Zm9.371-.078,8.134-9.176a6.684,6.684,0,0,0-.486-9.392L26.618,52.24a6.591,6.591,0,0,0-4.43-1.713c-.114,0-.23,0-.348.009-.2.011-.4.03-.6.06A46.754,46.754,0,0,1,66.471,9.2c.8.019,1.671.064,2.65.148a.942.942,0,0,0,.154.008A46.582,46.582,0,0,1,114.3,56.219a43.6,43.6,0,0,1-1.916,13.31c-.277.851-.516,1.726-.95,2.99ZM92.44,55.791c-2.319,0-4.606,1.348-4.606,3.977v4c0,2.646,2.286,3.977,4.558,3.977v0a4.649,4.649,0,0,0,4.165-2.611L94.01,63.957c-.638,1.609-3.251,1.215-3.251-.18V59.769c0-1.445,2.582-1.774,3.366-.327l2.382-.973a4.291,4.291,0,0,0-3.97-2.678Zm-52.749,0c-2.286,0-4.572,1.314-4.572,3.941v3.991c0,2.677,2.286,4.024,4.572,4.024,2.324,0,4.544-1.347,4.544-4.024V60.835H39.579V63.3h1.846v.428c0,1.806-3.381,1.822-3.381,0V59.734c0-1.527,2.58-1.889,3.216-.329l2.448-1.132A4.17,4.17,0,0,0,39.9,55.789C39.832,55.789,39.762,55.791,39.691,55.795Zm32.725,9.46.749,2.331,3.135,0L72.167,55.959h-2.66l-3.955,11.4L62.57,63.592c1.406-.441,2.273-1.656,2.273-3.808-.062-2.727-1.908-3.827-4.292-3.827H55.932V67.583h2.956V63.889h.523l2.679,3.7h6.518l.718-2.332Zm25.2,2.331h8.052V64.81h-5.1V63.069h4.688V60.524h-4.688V58.716h5.1V55.957H97.618ZM80.712,63l2.613,4.583h2.957l0-11.628H83.379v5.273c.014,0,.309,2,.325,2l-.084.015-.98-2.332-2.794-4.96H77.07V67.585h2.922V62.938l-.375-2.25.084-.018ZM51.277,65.253l.75,2.332h3.138L51.031,55.957H48.369L44.335,67.585H47.47l.719-2.332ZM80.532,52.214h4.33c2.318.017,4.491-1.149,4.491-3.826v-3.91c0-2.708-2.173-3.892-4.491-3.892h-4.33Zm21.595,0h2.925V40.586h-2.925Zm-7.48-4.58,2.614,4.58h2.956V40.587H97.31v5.271c.017,0,.311,2,.328,2l-.085.015-.981-2.332L93.78,40.586H91V52.212h2.926V47.567l-.376-2.25.084-.018ZM57.614,31.686v11.9c0,5.89,5.38,8.513,10.128,8.513,4.787,0,10.127-2.626,10.127-8.513v-11.9c0-5.93-5.341-8.553-10.127-8.553C62.993,23.133,57.614,25.757,57.614,31.686Zm-22.371,0V43.541c0,5.727,5.142,8.592,10.364,8.553,5.223,0,10.208-2.865,10.208-8.553l0-1.674c0-7.559-10.208-11.019-14.955-6.087V31.723c0-3.7,7.435-5.012,9.455-.755l4.9-2.108a10.439,10.439,0,0,0-9.61-5.727H45.5C40.315,23.133,35.242,26,35.242,31.686ZM101.914,39.8h2.532l2.14-2.729h-3.038ZM84.4,30.5,82.2,32.054l2.56.807.791,2.578,1.554-2.2,2.685.04-1.6-2.167.869-2.554-2.545.861L84.373,27.8Zm9.4-.048L91.6,32l2.558.807.791,2.58,1.556-2.2,2.682.04-1.6-2.167.869-2.553-2.544.861-2.148-1.619ZM69.981,62.643l.848-3.4h.082l.8,3.4Zm-21.138,0,.849-3.4h.082l.8,3.4ZM60.6,61.362H58.89V58.7H60.6a.963.963,0,0,1,.133,0,1.332,1.332,0,0,1-.066,2.662ZM83.474,49.453V43.328h1.485c.981,0,1.456.476,1.456,1.231v3.629c0,.757-.458,1.265-1.456,1.265ZM63.191,43.581v-11.9c.317-4.177,8.783-4.177,9.1,0v11.9c-.158,2.048-2.354,3.073-4.55,3.073S63.349,45.629,63.191,43.581ZM40.856,43.5V41.914c0-4.019,9.376-4.061,9.376,0V43.5c0,2.025-2.331,3.03-4.669,3.03S40.856,45.519,40.856,43.5Z" transform="translate(4.73 3.5)" stroke="rgba(0,0,0,0)" stroke-width="1" fill="url(#linear-gradient)"/>
  </g>
</svg>
