<svg xmlns="http://www.w3.org/2000/svg" xmlns:xlink="http://www.w3.org/1999/xlink" width="134.334" height="134.334" viewBox="0 0 134.334 134.334">
  <defs>
    <linearGradient id="linear-gradient" x1="0.089" y1="0.227" x2="0.935" y2="0.803" gradientUnits="objectBoundingBox">
      <stop offset="0" stop-color="#ffd4d4"/>
      <stop offset="0.167" stop-color="#fff9de"/>
      <stop offset="0.326" stop-color="#e3ffd8"/>
      <stop offset="0.494" stop-color="#ccfffc"/>
      <stop offset="0.674" stop-color="#c8c8ff"/>
      <stop offset="0.824" stop-color="#ffd8ff"/>
      <stop offset="1" stop-color="#ffd2d2"/>
    </linearGradient>
    <filter id="Rectangle_201" x="0" y="0" width="134.334" height="134.335" filterUnits="userSpaceOnUse">
      <feOffset dx="5" dy="6" input="SourceAlpha"/>
      <feGaussianBlur stdDeviation="3" result="blur"/>
      <feFlood/>
      <feComposite operator="in" in2="blur"/>
      <feComposite in="SourceGraphic"/>
    </filter>
    <filter id="Union_59" x="0" y="0" width="134.334" height="134.334" filterUnits="userSpaceOnUse">
      <feOffset dx="5" dy="6" input="SourceAlpha"/>
      <feGaussianBlur stdDeviation="3" result="blur-2"/>
      <feFlood/>
      <feComposite operator="in" in2="blur-2"/>
      <feComposite in="SourceGraphic"/>
    </filter>
  </defs>
  <g transform="matrix(1, 0, 0, 1, 0, 0)" filter="url(#Union_59)">
    <path id="Union_59-2" data-name="Union 59" d="M15124,57.667a57.667,57.667,0,1,1,57.668,57.667A57.669,57.669,0,0,1,15124,57.667Zm21.141-36.526a51.658,51.658,0,1,0,36.527-15.129A51.471,51.471,0,0,0,15145.141,21.141Zm33.223,74.723,2.148-.015,1.822,4.147,1.771-4.171,2.152-.015.064,8.509-2.166.015,0-2.451.121-1.72-.074-.012-1.1,2.929-1.479.012-1.162-2.914-.062.012.156,1.72.02,2.451-2.152.015Zm9.709,5.4-.648-2.84c-.434-1.908,1.066-3.237,2.791-3.629s3.658.166,4.09,2.066l.648,2.836c.432,1.9-1.064,3.237-2.787,3.629a4.746,4.746,0,0,1-1.039.117A2.887,2.887,0,0,1,15188.072,101.266Zm2.553-4.551c-.658.148-1.24.626-1.1,1.236l.645,2.836c.139.607.885.749,1.553.6s1.268-.61,1.133-1.209l-.645-2.836a.994.994,0,0,0-1.086-.681A2.261,2.261,0,0,0,15190.625,96.715Zm-20.918,5.981-.012-1.791-2.164-.684-1.02,1.468-2.2-.694,5.389-7.221,1.865.589.344,9.027Zm-1.143-4.153,1.211.382.189-2.547-.061-.018Zm28.1-3.487-2.074.9-.811-1.878,6.148-2.661.811,1.878-2.076.9,2.578,5.95-2,.863Zm-35.863,4.138-.064-3.866.168-1.859-.059-.015-.549,1.575-1.645,2.981-1.887-1.039,4.107-7.458,1.791.987.049,4.171-.189,1.844.057.019c-.01,0,.51-1.394.5-1.4l1.859-3.379,1.875,1.03-4.107,7.458Zm42.42-3.062-1.625-2.417c-1.1-1.628-.174-3.407,1.291-4.393s3.48-1.169,4.568.45l1.629,2.417c1.088,1.619.172,3.407-1.295,4.393a4.2,4.2,0,0,1-2.3.755A2.638,2.638,0,0,1,15203.217,96.132Zm.742-5.17c-.559.376-.932,1.033-.58,1.551L15205,94.93c.35.518,1.1.379,1.668,0s.963-1.027.617-1.535l-1.621-2.417a.818.818,0,0,0-.713-.361A1.869,1.869,0,0,0,15203.959,90.962Zm-53.992.456.848-1.582-1.572-1.64-1.6.8-1.6-1.665,8.2-3.752L15155.6,85l-4.039,8.09Zm.99-4.2.881.919,1.389-2.149-.041-.043Zm55.406-.2,2.4-2.414c1.238-1.246,2.768-1.64,4.217-.265,1.121,1.11,1.3,2.189.8,3.154l3.713.413-1.895,1.9-3.307-.512-.271.274,1.918,1.908-1.535,1.545Zm3.852-1.024-.891.9,1.381,1.372.895-.894a.983.983,0,0,0-.66-1.7A1.019,1.019,0,0,0,15210.215,86Zm-66.232-1.7,1.375-3.478-.121-.009-2.473,1.6-1.174-1.819,7.152-4.612,1.176,1.816-2.648,1.708,3.9.234,1.451,2.251-5.281-.6-1.881,5.2Zm30.125-4.776c-10.121,0-20.021-5.559-20.021-16.6V39.908c0-11.121,10.039-16.683,20.234-16.6,7.412,0,14.287,3.089,18.764,11.118l-9.576,4.094c-3.936-8.263-18.455-5.716-18.455,1.468V47.86c9.268-9.573,29.191-2.855,29.191,11.821v3.24c0,11.044-9.73,16.6-19.924,16.6Zm-9.055-19.769v3.089c0,7.8,18.3,7.877,18.3,0V59.754c0-3.928-4.553-5.88-9.115-5.88h0C15169.65,53.875,15165.053,55.845,15165.053,59.754Zm36.1,15.69-3.607-1.132,3.092-2.174-.039-3.78,3.023,2.266,3.584-1.206L15205.984,73l2.254,3.037-3.779-.059-2.189,3.08Zm15.535-.231-3.6-1.132,3.09-2.174-.041-3.78,3.025,2.266,3.582-1.2-1.221,3.576,2.254,3.034-3.781-.059-2.187,3.08Zm-76.1-4.156,5.264-2.09.8,2.023-5.266,2.09c-1.273.506-.375,2.766.9,2.269l5.266-2.09.8,2.023-5.266,2.09a2.981,2.981,0,0,1-1.1.219C15138.932,77.59,15137.256,72.368,15140.59,71.057Zm-3.643-3.1,2.3-2.433-.07-.379-2.66.49-.395-2.137,8.369-1.548.617,3.345c.32,1.727-.225,3.21-2.18,3.62-1.547.287-2.541-.179-3.045-1.138l-2.451,2.815Zm4.053-3.148.232,1.243a.974.974,0,1,0,1.914-.355l-.227-1.243Zm-5.07-5.334,1.711-.536.027-2.269-1.7-.549.025-2.306,8.475,3.068-.023,1.958-8.543,2.941Zm3.629-1.03,2.494-.561v-.059l-2.48-.654Zm78.027,3.136V54.451h-2.488V52.2h7.369v2.248h-2.488v7.131Zm-17.486,0V52.216h2.383V59.24h3.807v2.343Zm7.447,0V52.216h6.521v2.223h-4.129v1.455h3.8v2.05h-3.8v1.4h4.129V61.58Zm-62.52-3.068.021-1.862,1.982,1.224-.027,2.235Zm-6.207-9.114-.656,3.4-1.945-.392,1.246-6.185.857-.231,4.881,4.733.674-3.345,1.955.392-1.221,6.068-.8.305Zm76.467-5.707-3.607-1.132,3.092-2.174-.041-3.78,3.025,2.266,3.582-1.206-1.221,3.576,2.254,3.037-3.779-.059-2.189,3.08Zm-16.854,0-3.607-1.132,3.094-2.174-.041-3.78,3.025,2.266,3.578-1.206-1.221,3.576,2.254,3.037-3.779-.059-2.189,3.08Zm5.158-15.024-3.607-1.128,3.092-2.177-.039-3.78,3.025,2.269,3.582-1.206-1.221,3.576,2.25,3.034-3.777-.055-2.191,3.08Zm-14.65-8.334-3.607-1.128,3.092-2.177-.041-3.78,3.025,2.269,3.582-1.206-1.221,3.576,2.254,3.034-3.779-.055-2.189,3.08Z" transform="translate(-15119.5 3.5)" stroke="rgba(0,0,0,0)" stroke-width="1" fill="url(#linear-gradient)"/>
  </g>
</svg>
