<svg xmlns="http://www.w3.org/2000/svg" xmlns:xlink="http://www.w3.org/1999/xlink" width="135.445" height="135.446" viewBox="0 0 135.445 135.446">
  <defs>
    <linearGradient id="linear-gradient" x1="0.125" y1="0.145" x2="0.853" y2="0.873" gradientUnits="objectBoundingBox">
      <stop offset="0" stop-color="#ffd4d4"/>
      <stop offset="0.167" stop-color="#fff9de"/>
      <stop offset="0.326" stop-color="#e3ffd8"/>
      <stop offset="0.494" stop-color="#ccfffc"/>
      <stop offset="0.674" stop-color="#c8c8ff"/>
      <stop offset="0.824" stop-color="#ffd8ff"/>
      <stop offset="1" stop-color="#ffd2d2"/>
    </linearGradient>
    <filter id="Union_69" x="0" y="0" width="135.445" height="135.446" filterUnits="userSpaceOnUse">
      <feOffset dx="5" dy="6" input="SourceAlpha"/>
      <feGaussianBlur stdDeviation="3" result="blur"/>
      <feFlood/>
      <feComposite operator="in" in2="blur"/>
      <feComposite in="SourceGraphic"/>
    </filter>
  </defs>
  <g transform="matrix(1, 0, 0, 1, 0, 0)" filter="url(#Union_69)">
    <path id="Union_69-2" data-name="Union 69" d="M0,58.223a58.222,58.222,0,1,1,58.223,58.223A58.226,58.226,0,0,1,0,58.223ZM21.346,21.346A52.153,52.153,0,1,0,58.223,6.071,51.971,51.971,0,0,0,21.346,21.346Zm33.581,83.892-.357-1.777-2.277-.266-.73,1.651-2.316-.27,3.974-8.188,1.965.228,2.056,8.89ZM53,101.335l1.279.15-.3-2.565-.061-.005Zm9.238-4.626,3.392-.615a2.52,2.52,0,0,1,3.215,2.083,1.732,1.732,0,0,1-.623,1.533,2.177,2.177,0,0,1,1.615,2.1c.033,1.4-.738,2.393-2.614,2.733l-3.453.626Zm4.271,4.236-1.242.225.315,1.733,1.241-.226a.878.878,0,0,0-.089-1.753A1.258,1.258,0,0,0,66.505,100.945ZM65.952,97.9l-1.242.225.272,1.506,1.243-.225a.764.764,0,0,0-.088-1.523A1.043,1.043,0,0,0,65.952,97.9Zm-20.513,5.574-.81-3.819-.19-1.871-.059-.007-.246,1.667-1.052,3.269-2.068-.666,2.635-8.177,1.963.633.85,4.125.166,1.863.061.009c-.012-.005.234-1.482.223-1.485L48.107,95.3l2.056.663-2.635,8.178Zm25.7-8.863,1.85-.709,5.95,6.933-2.18.836-1.139-1.412-2.145.822.119,1.8-2.179.835Zm1.79,1.916.31,2.575,1.2-.461L72.988,96.5Zm4.749-2.584-1.973,1.146L74.668,93.3l5.848-3.4,1.037,1.784-1.973,1.146,3.288,5.66-1.9,1.1ZM33.2,97.879l.538-1.73-1.876-1.322-1.429,1.1-1.9-1.343,7.4-5.3,1.615,1.141-2.44,8.79Zm.169-4.349,1.052.741.962-2.4-.05-.035Zm47.456-3.888,4.577-3.862,1.316,1.56-2.9,2.444.862,1.021,2.664-2.246L88.564,90,85.9,92.245l.831.983,2.9-2.444,1.323,1.569-4.576,3.861Zm-54.963,2.3.7-3.711-.121.014L24.3,90.3l-1.51-1.579L29,82.789l1.509,1.58-2.3,2.2,3.909-.511,1.871,1.957-5.348.411-.874,5.517ZM85.889,85.3l2.174-2.665c1.121-1.373,2.621-1.923,4.213-.685,1.234,1.006,1.523,2.074,1.118,3.091l3.771.051-1.713,2.1-3.38-.185-.246.3,2.118,1.73-1.39,1.7Zm3.77-1.408-.807.987,1.526,1.245.805-.988a.988.988,0,0,0-.738-1.65A1.006,1.006,0,0,0,89.659,83.892ZM20,79.511l4.812-3.089L26,78.269l-4.811,3.089c-1.166.748.161,2.81,1.331,2.075l4.812-3.09,1.187,1.849L23.7,85.281a2.877,2.877,0,0,1-1.561.478C19.333,85.759,17.121,81.344,20,79.511Zm70.446-.132,1.122-1.86,7.358,4.442L97.8,83.82Zm1.7-2.712,2.385-5.486,1.869.812-1.509,3.473L96.112,76,97.5,72.8l1.723.751-1.388,3.194,1.18.512,1.51-3.471,1.88.817-2.385,5.486Zm-76.354.461L17.6,74.273l-.143-.363-2.543,1-.807-2.045,8-3.156,1.262,3.2c.65,1.65.4,3.224-1.46,4.01-1.481.583-2.555.316-3.241-.535l-1.886,3.263Zm3.408-3.9.469,1.186a.985.985,0,1,0,1.83-.722L21.027,72.5Zm13.3,3.86-2.574-6.707L53.622,44.8c5.457-5.85,4.287-13.256-4.29-13.256a12.29,12.29,0,0,0-10.448,5.926L30.7,31.938A22.155,22.155,0,0,1,49.488,21.1c19.569,0,24.249,19.57,11.929,31.656l-14.111,13.8.076.311,7.641-.7L68.2,66.09V77.084ZM13.14,68.946l1.592-.862-.416-2.256-1.793-.212L12.1,63.322l9,1.388.359,1.947-7.9,4.582Zm3.395-1.726,2.366-1.04-.012-.061L16.3,65.953Zm5.435-1-.343-1.85,2.2.827.411,2.221Zm-7.931-7.84V61.87l-2-.013.044-6.369.8-.394,5.748,3.751.024-3.445,2.013.013-.042,6.248-.732.457Zm63.389.111V55.057c0-2.11,1.937-3.166,3.873-3.153s3.872,1.055,3.872,3.153v3.431c0,2.1-1.935,3.154-3.872,3.154S77.427,60.6,77.427,58.487Zm3.86-4.633c-.948,0-1.91.413-1.91,1.2v3.431c0,.8.962,1.19,1.923,1.19s1.91-.4,1.91-1.19V55.057c0-.8-.929-1.2-1.874-1.2Zm16.252,7.64v-3.62l-3.244-5.76L90.3,56.67l4.06,4.824h-2.43L88.979,57.98l-.373.361v3.153H86.641V52.038h1.966v3.94l3.363-3.94h4.54l2,3.952,2-3.952H102.8l-3.3,5.836v3.62Zm-23.009,0-2.683-3.458h-.695v3.458H69.174V52.039H72.9c1.9,0,3.325.868,3.378,3.018A2.509,2.509,0,0,1,74.131,57.9l2.817,3.594Zm-3.378-5.249H72.9c.869,0,1.416-.347,1.416-1.177,0-.8-.588-1.081-1.416-1.055H71.152Zm5.853-11.978-3.518-1.1L76.5,41.041l-.038-3.688,2.95,2.213,3.5-1.176-1.192,3.49,2.2,2.961-3.688-.058-2.136,3.006ZM89.91,44.2l-3.518-1.1,3.016-2.123-.038-3.687L92.32,39.5l3.5-1.175-1.192,3.489,2.2,2.961-3.688-.057L91,47.725Z" transform="translate(4.5 3.5)" stroke="rgba(0,0,0,0)" stroke-width="1" fill="url(#linear-gradient)"/>
  </g>
</svg>
