<svg xmlns="http://www.w3.org/2000/svg" xmlns:xlink="http://www.w3.org/1999/xlink" width="135.446" height="135.447" viewBox="0 0 135.446 135.447">
  <defs>
    <linearGradient id="linear-gradient" x1="0.125" y1="0.104" x2="0.821" y2="0.902" gradientUnits="objectBoundingBox">
      <stop offset="0" stop-color="#ffd4d4"/>
      <stop offset="0.167" stop-color="#fff9de"/>
      <stop offset="0.326" stop-color="#e3ffd8"/>
      <stop offset="0.494" stop-color="#ccfffc"/>
      <stop offset="0.674" stop-color="#c8c8ff"/>
      <stop offset="0.824" stop-color="#ffd8ff"/>
      <stop offset="1" stop-color="#ffd2d2"/>
    </linearGradient>
    <filter id="Union_62" x="0" y="0" width="135.446" height="135.447" filterUnits="userSpaceOnUse">
      <feOffset dx="5" dy="6" input="SourceAlpha"/>
      <feGaussianBlur stdDeviation="3" result="blur"/>
      <feFlood/>
      <feComposite operator="in" in2="blur"/>
      <feComposite in="SourceGraphic"/>
    </filter>
  </defs>
  <g transform="matrix(1, 0, 0, 1, 0, 0)" filter="url(#Union_62)">
    <path id="Union_62-2" data-name="Union 62" d="M13064.463,1514.266h15.068a52.144,52.144,0,0,0,29.384,0h15.068a58.21,58.21,0,0,1-59.521,0Zm-16.151-2.581a5.98,5.98,0,0,1-5.971-5.971v-15.346a5.979,5.979,0,0,1,5.971-5.971h29.6c.3.248.581.508.895.743a23.1,23.1,0,0,0,5.284,2.9h-35.781a2.329,2.329,0,0,0-2.327,2.327v15.346a2.332,2.332,0,0,0,2.327,2.33h91.823a2.335,2.335,0,0,0,2.33-2.33v-15.346a2.332,2.332,0,0,0-2.33-2.327h-34.566a20.827,20.827,0,0,0,5.994-3.644h28.572a5.978,5.978,0,0,1,5.971,5.971v15.346a5.978,5.978,0,0,1-5.971,5.971Zm40.778-11.774v-6.291h2.417v6.291c0,1.522,2.7,1.522,2.71,0v-6.291h2.419v6.291c-.006,2.216-1.9,3.325-3.784,3.325S13089.082,1502.127,13089.09,1499.91Zm42.053,3.165v-9.457h2.39v9.457Zm-4.581,0-2.136-3.727-.828-1.9-.066.013.307,1.832v3.779h-2.393v-9.457h2.271l2.284,4.034.8,1.9.065-.013c-.013,0-.254-1.631-.268-1.631v-4.288h2.38v9.457Zm-19.1,0v-9.457h2.39v9.457Zm-8.869,0-.442-.881,4.09-6.357h-3.8v-2.218h6.879l.508.8-4.072,6.48,3.845-.03v2.2Zm-17.187,0v-9.457h2.4v7.093h3.849v2.363Zm-4.314,0-2.416-3.38-.079.109v3.271h-2.4v-9.457h2.4v3.5l2.564-3.5h2.978l-3.739,4.568,3.727,4.889Zm-9.051,0-1.656-3.218-1.618,3.218h-2.792l2.66-4.714-2.66-4.743h2.792l1.618,3.231,1.656-3.231h2.776l-2.644,4.743,2.644,4.714Zm-13.8,0v-9.457h6.585v2.245h-4.166v1.469h3.833v2.07h-3.833v1.416h4.166v2.258Zm60.31-.013-3.407-9.457h2.565l1.481,4.621.426,2.245h.04l.429-2.231,1.5-4.634h2.565l-3.406,9.457Zm16.411-10.084,1.337-2.218h2.482l-1.75,2.218Zm-56.084-15.92,8.12-5.72a12.772,12.772,0,0,0,10.437,6.08c11.7,0,11.847-11.589,1.265-12.16h-7.377v-8.942h7.377a5.235,5.235,0,0,0,5.516-5.149c0-3.073-3.205-4.935-6.631-4.935-2.981,0-7.156.5-10.286,4.222l-6.482-5.793c3.8-5.651,10.73-8.869,17.511-8.8,9.764.145,16.769,7.011,16.769,14.877,0,3.149-1.489,6.509-5.14,9.3a13.768,13.768,0,0,1,7.377,12.3c0,8.153-7.75,15.521-18.557,15.521C13090.16,1487.859,13080.4,1486.931,13074.884,1477.059Zm68.248,5.308a52.155,52.155,0,1,0-97.813,0,8.6,8.6,0,0,0-4.773,4.443,58.223,58.223,0,1,1,107.356,0A8.606,8.606,0,0,0,13143.132,1482.366Zm-11.814-9.318,1.8-.2.413-2.162-1.6-.828.33-1.73-.01.007.039-2.644,3.1-2.056-.1-.073-2.971-.049.033-2.1,8.589.145-.033,2.1-3.179-.056,3.146,2.291-.042,2.6-4.1-3.334-4.073,2.878,7.589,4.265-.356,1.865-9,1.284Zm3.786-.333,2.578-.089.01-.056-2.356-1.069Zm-77.833-9.787v-3.433c0-2.113,1.938-3.166,3.872-3.152s3.875,1.056,3.875,3.152v3.433c0,2.1-1.937,3.152-3.875,3.152S13057.271,1465.037,13057.271,1462.928Zm3.861-4.634c-.95,0-1.911.413-1.911,1.2v3.433c0,.8.961,1.188,1.922,1.188s1.911-.4,1.911-1.188v-3.433c0-.8-.931-1.2-1.875-1.2Zm16.25,7.638v-3.618l-3.244-5.763-3.994,4.558,4.06,4.823h-2.429l-2.951-3.512-.373.36v3.152h-1.967v-9.457h1.967v3.941l3.363-3.941h4.539l2,3.954,2.007-3.954h2.28l-3.3,5.839v3.618Zm-23.006,0-2.687-3.459H13051v3.459h-1.977v-9.457h3.727c1.895,0,3.323.868,3.38,3.02a2.512,2.512,0,0,1-2.152,2.845l2.819,3.591Zm-3.381-5.248h1.75c.868,0,1.416-.347,1.416-1.175,0-.8-.588-1.083-1.416-1.056H13051Zm82.867-7.341,5.618-1.063.394,2.07-5.622,1.066c-1.359.257-.921,2.568.442,2.324l5.618-1.066.393,2.073-5.621,1.063a3.353,3.353,0,0,1-.618.059C13131.006,1459.867,13130.113,1454.042,13133.862,1453.342Zm-3.763-2,1.829-2.786-.136-.347-2.538,1.01-.782-1.961,7.988-3.175,1.221,3.067c.631,1.581.36,3.106-1.5,3.9-1.476.588-2.542.343-3.215-.465l-1.911,3.179Zm3.43-3.822.452,1.139a.984.984,0,1,0,1.829-.726l-.452-1.139Zm-65.752.805-3.113-.571,2.351-2.122-.416-3.139,2.743,1.578,2.854-1.367-.653,3.1,2.182,2.294-3.146.333-1.509,2.786Zm-11.92,0-3.112-.571,2.35-2.122-.416-3.139,2.743,1.578,2.855-1.367-.653,3.1,2.182,2.294-3.149.333-1.5,2.786Zm71.377-3.175,1.166-1.38-1.183-1.855-1.729.492-1.194-1.868-.047.043-4.172-4.482.327-.829,6.661-1.33-2.255-2.423,1.476-1.376,4.093,4.4-.23.822-6.741,1.409,2.312,2.443-1.4,1.3,8.768-2.182,1.023,1.6-5.671,7.1Zm1.862-3.878.663,1.04,1.815-1.829-.033-.053Zm-67.674-1.7-3.112-.574,2.347-2.122-.416-3.139,2.743,1.578,2.854-1.367-.649,3.1,2.178,2.294-3.146.337-1.508,2.783Zm73-.231-.968-1.522,2.324-.1,1.165,1.825Zm-17.587-5.823.518-1.73-1.828-1.228-1.387,1.145-1.858-1.248,7.189-5.532,1.574,1.063-2.354,8.78Zm.155-4.3,1.022.69.932-2.4-.047-.033Zm-6.879.357-.4-3.845,0-1.872-.057-.01-.4,1.637-1.34,3.166-1.921-.812,3.344-7.922,1.825.772.412,4.152-.026,1.862.057.013c-.01-.007.373-1.452.363-1.456l1.518-3.591,1.911.805-3.343,7.922Zm-9.909-3.057,1.888-8.381,2.047.462-1.416,6.285,3.277.736-.476,2.1Zm-6.9-.485.445-8.575,3.295.172a3.039,3.039,0,0,1-.308,6.07l-1.221-.063-.129,2.505Zm2.313-4.324,1.209.063c1.257.079,1.366-2.066.111-2.119l-1.211-.063Zm23.987,2.608,2.093-1.023,1.8,1.208-2.393.822Z" transform="translate(-13031.5 -1402.5)" stroke="rgba(0,0,0,0)" stroke-width="1" fill="url(#linear-gradient)"/>
  </g>
</svg>
